<?xml version="1.0" encoding="UTF-8" standalone="no"?>
<!-- Created with Inkscape (http://www.inkscape.org/) -->

<svg
   xmlns:dc="http://purl.org/dc/elements/1.1/"
   xmlns:cc="http://creativecommons.org/ns#"
   xmlns:rdf="http://www.w3.org/1999/02/22-rdf-syntax-ns#"
   xmlns:svg="http://www.w3.org/2000/svg"
   xmlns="http://www.w3.org/2000/svg"
   xmlns:inkscape="http://www.inkscape.org/namespaces/inkscape"
   version="1.1"
   width="388.88849"
   height="394.28568"
   id="svg2">
  <defs
     id="defs4">
    <inkscape:path-effect
       effect="spiro"
       id="path-effect3027" />
    <inkscape:path-effect
       effect="skeletal"
       id="path-effect3023" />
    <inkscape:path-effect
       effect="spiro"
       id="path-effect3021" />
  </defs>
  <metadata
     id="metadata7">
    <rdf:RDF>
      <cc:Work
         rdf:about="">
        <dc:format>image/svg+xml</dc:format>
        <dc:type
           rdf:resource="http://purl.org/dc/dcmitype/StillImage" />
        <dc:title></dc:title>
      </cc:Work>
    </rdf:RDF>
  </metadata>
  <g
     transform="translate(-204.25586,-28.79076)"
     id="layer1">
    <rect
       width="353.38474"
       height="284.67102"
       ry="4.7717843"
       x="204.25586"
       y="28.79076"
       id="rect2985"
       style="fill:#2e3436;fill-opacity:1;stroke:none" />
    <rect
       width="95.708359"
       height="32.720806"
       ry="4.7717843"
       x="331.867"
       y="297.91937"
       id="rect2987"
       style="fill:#2e3436;fill-opacity:1;stroke:none" />
    <rect
       width="174.2383"
       height="13.088323"
       ry="4.7717843"
       x="289.32996"
       y="326.55011"
       id="rect2989"
       style="fill:#2e3436;fill-opacity:1;stroke:none" />
    <rect
       width="322.29993"
       height="247.04208"
       ry="4.7717843"
       x="220.61626"
       y="49.241253"
       id="rect2991"
       style="fill:#eeeeec;fill-opacity:1;stroke:none" />
    <rect
       width="314.93777"
       height="66.294968"
       ry="12.574878"
       x="330.12924"
       y="373.28793"
       transform="matrix(1,0,-0.27146014,0.96244968,0,0)"
       id="rect2993"
       style="fill:#888a85;fill-opacity:1;stroke:none" />
    <rect
       width="269.67407"
       height="42.707951"
       ry="7.0188999"
       x="277.46173"
       y="370.57037"
       transform="matrix(1,0,-0.08938352,0.99599728,0,0)"
       id="rect2995"
       style="fill:#eeeeec;fill-opacity:1;stroke:none" />
    <path
       d="m 301.22016,183.73875 18.45817,0 c 0.53553,0 0.70994,0.49668 0.96667,0.96667 l 29.40577,53.83397 c 0.99713,1.82548 -1.67457,3.75463 -3.75464,3.75463 l -71.69376,0 c -2.08008,0 -4.75177,-1.92915 -3.75464,-3.75463 l 29.40577,-53.83397 c 0.25671,-0.46999 0.43112,-0.96667 0.96666,-0.96667 z"
       id="rect2997"
       style="fill:#babdb6;fill-opacity:1;stroke:none" />
    <path
       d="m 300.27237,162.32328 28.58925,-0.10227 c 1.75134,-0.006 -5.1156,5.09105 -5.12117,6.84239 l -0.10227,32.09997 c -0.006,1.75134 -1.40993,3.16129 -3.16128,3.16129 l -20.20454,0 c -1.75135,0 -3.16128,-1.40994 -3.16128,-3.16129 l 0,-32.53361 c 0,-1.75135 -6.21808,-6.30649 -4.46673,-6.30649 z"
       id="rect3000"
       style="fill:#babdb6;fill-opacity:1;stroke:none" />
    <path
       d="m 184.99999,199.1479 a 11.785714,11.785714 0 1 1 -23.57142,0 11.785714,11.785714 0 1 1 23.57142,0 z"
       transform="matrix(1.1452282,0,0,1.1452282,70.100543,-116.24999)"
       id="path3002"
       style="fill:#babdb6;fill-opacity:1;stroke:none" />
    <path
       d="m 209.28571,207.00504 a 6.7857141,6.7857141 0 1 1 -13.57142,0 6.7857141,6.7857141 0 1 1 13.57142,0 z"
       transform="matrix(1.1452282,0,0,1.1452282,70.100543,-116.24999)"
       id="path3004"
       style="fill:#babdb6;fill-opacity:1;stroke:none" />
    <path
       d="m 216.42857,180.21933 a 11.428572,11.428572 0 1 1 -22.85714,0 11.428572,11.428572 0 1 1 22.85714,0 z"
       transform="matrix(1.1452282,0,0,1.1452282,70.100543,-116.24999)"
       id="path3006"
       style="fill:#babdb6;fill-opacity:1;stroke:none" />
    <path
       d="m 182.14285,199.1479 a 8.9285717,8.9285717 0 1 1 -17.85714,0 8.9285717,8.9285717 0 1 1 17.85714,0 z"
       transform="matrix(1.1452282,0,0,1.1452282,70.100543,-116.24999)"
       id="path3009"
       style="fill:#ffffff;fill-opacity:1;stroke:none" />
    <path
       d="m 213.75,180.21933 a 8.750001,8.750001 0 1 1 -17.5,0 8.750001,8.750001 0 1 1 17.5,0 z"
       transform="matrix(1.1452282,0,0,1.1452282,70.100543,-116.24999)"
       id="path3011"
       style="fill:#ffffff;fill-opacity:1;stroke:none" />
    <path
       d="m 207.14286,207.00504 a 4.6428571,4.6428571 0 1 1 -9.28572,0 4.6428571,4.6428571 0 1 1 9.28572,0 z"
       transform="matrix(1.1452282,0,0,1.1452282,70.100543,-116.24999)"
       id="path3013"
       style="fill:#ffffff;fill-opacity:1;stroke:none" />
    <path
       d="m 564.90144,374.8001 24.7251,0 c 2.42473,0 4.06886,1.93918 3.34621,4.25371 l -10.22359,32.74461 c -0.72265,2.31453 -0.74143,3.9296 -3.16592,3.96449 l -20.09513,0.28922 c -2.42447,0.0349 -3.59315,-1.8416 -3.34621,-4.25371 l 3.35222,-32.74461 c 0.24693,-2.41211 2.9826,-4.25371 5.40732,-4.25371 z"
       id="rect3015"
       style="fill:#2e3436;fill-opacity:1;stroke:none" />
    <path
       d="m 568.8893,378.89021 14.75177,0 c 2.42473,0 4.20073,1.98456 3.34621,4.25371 l -2.04979,5.44311 c -0.85452,2.26916 -1.96008,4.04919 -4.38479,4.04919 l -14.44501,0 c -2.42474,0 -3.57344,-1.83965 -3.3462,-4.2537 l 0.61824,-6.56789 c 0.22724,-2.41404 3.08484,-2.92442 5.50957,-2.92442 z"
       id="rect3031"
       style="fill:#babdb6;fill-opacity:1;stroke:none" />
  </g>
</svg>
