<?xml version="1.0" encoding="UTF-8" standalone="no"?>
<!-- Created with Inkscape (http://www.inkscape.org/) -->

<svg
   xmlns:dc="http://purl.org/dc/elements/1.1/"
   xmlns:cc="http://creativecommons.org/ns#"
   xmlns:rdf="http://www.w3.org/1999/02/22-rdf-syntax-ns#"
   xmlns:svg="http://www.w3.org/2000/svg"
   xmlns="http://www.w3.org/2000/svg"
   xmlns:sodipodi="http://sodipodi.sourceforge.net/DTD/sodipodi-0.dtd"
   xmlns:inkscape="http://www.inkscape.org/namespaces/inkscape"
   width="388.88849"
   height="394.28568"
   id="svg2"
   version="1.1"
   inkscape:version="0.48.5 r10040"
   sodipodi:docname="drawing.svg">
  <defs
     id="defs4">
    <inkscape:path-effect
       effect="spiro"
       id="path-effect3027"
       is_visible="true" />
    <inkscape:path-effect
       effect="skeletal"
       id="path-effect3023"
       is_visible="true"
       pattern="M 0,0 0,10 10,5 z"
       copytype="single_stretched"
       prop_scale="1"
       scale_y_rel="false"
       spacing="0"
       normal_offset="0"
       tang_offset="0"
       prop_units="false"
       vertical_pattern="false"
       fuse_tolerance="0" />
    <inkscape:path-effect
       effect="spiro"
       id="path-effect3021"
       is_visible="true" />
  </defs>
  <sodipodi:namedview
     id="base"
     pagecolor="#ffffff"
     bordercolor="#666666"
     borderopacity="1.0"
     inkscape:pageopacity="0.0"
     inkscape:pageshadow="2"
     inkscape:zoom="1.4"
     inkscape:cx="146.72844"
     inkscape:cy="135.71271"
     inkscape:document-units="px"
     inkscape:current-layer="layer1"
     showgrid="false"
     inkscape:window-width="1920"
     inkscape:window-height="1018"
     inkscape:window-x="-8"
     inkscape:window-y="-8"
     inkscape:window-maximized="1"
     fit-margin-top="0"
     fit-margin-left="0"
     fit-margin-right="0"
     fit-margin-bottom="0" />
  <metadata
     id="metadata7">
    <rdf:RDF>
      <cc:Work
         rdf:about="">
        <dc:format>image/svg+xml</dc:format>
        <dc:type
           rdf:resource="http://purl.org/dc/dcmitype/StillImage" />
        <dc:title />
      </cc:Work>
    </rdf:RDF>
  </metadata>
  <g
     inkscape:label="Layer 1"
     inkscape:groupmode="layer"
     id="layer1"
     transform="translate(-204.25586,-28.79076)">
    <rect
       style="fill:#2e3436;fill-opacity:1;stroke:none"
       id="rect2985"
       width="353.38474"
       height="284.67102"
       x="204.25586"
       y="28.79076"
       ry="4.7717843" />
    <rect
       style="fill:#2e3436;fill-opacity:1;stroke:none"
       id="rect2987"
       width="95.708359"
       height="32.720806"
       x="331.867"
       y="297.91937"
       ry="4.7717843" />
    <rect
       style="fill:#2e3436;fill-opacity:1;stroke:none"
       id="rect2989"
       width="174.2383"
       height="13.088323"
       x="289.32996"
       y="326.55011"
       ry="4.7717843" />
    <rect
       style="fill:#eeeeec;fill-opacity:1;stroke:none"
       id="rect2991"
       width="322.29993"
       height="247.04208"
       x="220.61626"
       y="49.241253"
       ry="4.7717843" />
    <rect
       style="fill:#888a85;fill-opacity:1;stroke:none"
       id="rect2993"
       width="314.93777"
       height="66.294968"
       x="330.12924"
       y="373.28793"
       ry="12.574878"
       transform="matrix(1,0,-0.27146014,0.96244968,0,0)" />
    <rect
       transform="matrix(1,0,-0.08938352,0.99599728,0,0)"
       ry="7.0188999"
       y="370.57037"
       x="277.46173"
       height="42.707951"
       width="269.67407"
       id="rect2995"
       style="fill:#eeeeec;fill-opacity:1;stroke:none" />
    <path
       style="fill:#babdb6;fill-opacity:1;stroke:none"
       d="m 301.22016,183.73875 18.45817,0 c 0.53553,0 0.70994,0.49668 0.96667,0.96667 l 29.40577,53.83397 c 0.99713,1.82548 -1.67457,3.75463 -3.75464,3.75463 l -71.69376,0 c -2.08008,0 -4.75177,-1.92915 -3.75464,-3.75463 l 29.40577,-53.83397 c 0.25671,-0.46999 0.43112,-0.96667 0.96666,-0.96667 z"
       id="rect2997"
       inkscape:connector-curvature="0"
       sodipodi:nodetypes="sssssssss" />
    <path
       style="fill:#babdb6;fill-opacity:1;stroke:none"
       d="m 300.27237,162.32328 28.58925,-0.10227 c 1.75134,-0.006 -5.1156,5.09105 -5.12117,6.84239 l -0.10227,32.09997 c -0.006,1.75134 -1.40993,3.16129 -3.16128,3.16129 l -20.20454,0 c -1.75135,0 -3.16128,-1.40994 -3.16128,-3.16129 l 0,-32.53361 c 0,-1.75135 -6.21808,-6.30649 -4.46673,-6.30649 z"
       id="rect3000"
       inkscape:connector-curvature="0"
       sodipodi:nodetypes="cssssssssc" />
    <path
       sodipodi:type="arc"
       style="fill:#babdb6;fill-opacity:1;stroke:none"
       id="path3002"
       sodipodi:cx="173.21428"
       sodipodi:cy="199.1479"
       sodipodi:rx="11.785714"
       sodipodi:ry="11.785714"
       d="m 184.99999,199.1479 c 0,6.50907 -5.27664,11.78572 -11.78571,11.78572 -6.50907,0 -11.78571,-5.27665 -11.78571,-11.78572 0,-6.50907 5.27664,-11.78571 11.78571,-11.78571 6.50907,0 11.78571,5.27664 11.78571,11.78571 z"
       transform="matrix(1.1452282,0,0,1.1452282,70.100543,-116.24999)" />
    <path
       sodipodi:type="arc"
       style="fill:#babdb6;fill-opacity:1;stroke:none"
       id="path3004"
       sodipodi:cx="202.5"
       sodipodi:cy="207.00504"
       sodipodi:rx="6.7857141"
       sodipodi:ry="6.7857141"
       d="m 209.28571,207.00504 c 0,3.74764 -3.03806,6.78571 -6.78571,6.78571 -3.74765,0 -6.78571,-3.03807 -6.78571,-6.78571 0,-3.74765 3.03806,-6.78572 6.78571,-6.78572 3.74765,0 6.78571,3.03807 6.78571,6.78572 z"
       transform="matrix(1.1452282,0,0,1.1452282,70.100543,-116.24999)" />
    <path
       sodipodi:type="arc"
       style="fill:#babdb6;fill-opacity:1;stroke:none"
       id="path3006"
       sodipodi:cx="205"
       sodipodi:cy="180.21933"
       sodipodi:rx="11.428572"
       sodipodi:ry="11.428572"
       d="m 216.42857,180.21933 c 0,6.31183 -5.11674,11.42857 -11.42857,11.42857 -6.31183,0 -11.42857,-5.11674 -11.42857,-11.42857 0,-6.31183 5.11674,-11.42857 11.42857,-11.42857 6.31183,0 11.42857,5.11674 11.42857,11.42857 z"
       transform="matrix(1.1452282,0,0,1.1452282,70.100543,-116.24999)" />
    <path
       d="m 182.14285,199.1479 c 0,4.93112 -3.99746,8.92858 -8.92857,8.92858 -4.93111,0 -8.92857,-3.99746 -8.92857,-8.92858 0,-4.93111 3.99746,-8.92857 8.92857,-8.92857 4.93111,0 8.92857,3.99746 8.92857,8.92857 z"
       sodipodi:ry="8.9285717"
       sodipodi:rx="8.9285717"
       sodipodi:cy="199.1479"
       sodipodi:cx="173.21428"
       id="path3009"
       style="fill:#ffffff;fill-opacity:1;stroke:none"
       sodipodi:type="arc"
       transform="matrix(1.1452282,0,0,1.1452282,70.100543,-116.24999)" />
    <path
       d="m 213.75,180.21933 c 0,4.83249 -3.91751,8.75 -8.75,8.75 -4.83249,0 -8.75,-3.91751 -8.75,-8.75 0,-4.83249 3.91751,-8.75 8.75,-8.75 4.83249,0 8.75,3.91751 8.75,8.75 z"
       sodipodi:ry="8.750001"
       sodipodi:rx="8.750001"
       sodipodi:cy="180.21933"
       sodipodi:cx="205"
       id="path3011"
       style="fill:#ffffff;fill-opacity:1;stroke:none"
       sodipodi:type="arc"
       transform="matrix(1.1452282,0,0,1.1452282,70.100543,-116.24999)" />
    <path
       d="m 207.14286,207.00504 c 0,2.56417 -2.07868,4.64285 -4.64286,4.64285 -2.56418,0 -4.64286,-2.07868 -4.64286,-4.64285 0,-2.56418 2.07868,-4.64286 4.64286,-4.64286 2.56418,0 4.64286,2.07868 4.64286,4.64286 z"
       sodipodi:ry="4.6428571"
       sodipodi:rx="4.6428571"
       sodipodi:cy="207.00504"
       sodipodi:cx="202.5"
       id="path3013"
       style="fill:#ffffff;fill-opacity:1;stroke:none"
       sodipodi:type="arc"
       transform="matrix(1.1452282,0,0,1.1452282,70.100543,-116.24999)" />
    <path
       style="fill:#2e3436;fill-opacity:1;stroke:none"
       d="m 564.90144,374.8001 24.7251,0 c 2.42473,0 4.06886,1.93918 3.34621,4.25371 l -10.22359,32.74461 c -0.72265,2.31453 -0.74143,3.9296 -3.16592,3.96449 l -20.09513,0.28922 c -2.42447,0.0349 -3.59315,-1.8416 -3.34621,-4.25371 l 3.35222,-32.74461 c 0.24693,-2.41211 2.9826,-4.25371 5.40732,-4.25371 z"
       id="rect3015"
       inkscape:connector-curvature="0"
       sodipodi:nodetypes="sssssssss" />
    <path
       style="fill:#babdb6;fill-opacity:1;stroke:none"
       d="m 568.8893,378.89021 14.75177,0 c 2.42473,0 4.20073,1.98456 3.34621,4.25371 l -2.04979,5.44311 c -0.85452,2.26916 -1.96008,4.04919 -4.38479,4.04919 l -14.44501,0 c -2.42474,0 -3.57344,-1.83965 -3.3462,-4.2537 l 0.61824,-6.56789 c 0.22724,-2.41404 3.08484,-2.92442 5.50957,-2.92442 z"
       id="rect3031"
       inkscape:connector-curvature="0"
       sodipodi:nodetypes="sssssssss" />
  </g>
</svg>
